<svg xmlns="http://www.w3.org/2000/svg" width="28.176" height="18.784" viewBox="0 0 28.176 18.784"><defs><style>.a{fill:#00b3f3;}</style></defs><path class="a" d="M28.014,15.658l-3.543,6.073a3.131,3.131,0,0,1-2.7,1.553H2.2a1.174,1.174,0,0,1-1.014-1.766l3.543-6.073a3.131,3.131,0,0,1,2.7-1.553H27a1.174,1.174,0,0,1,1.014,1.766ZM7.435,12.327H23.48V9.979a2.348,2.348,0,0,0-2.348-2.348H13.305L10.175,4.5H2.348A2.348,2.348,0,0,0,0,6.848v13.6l3.379-5.793A4.712,4.712,0,0,1,7.435,12.327Z" transform="translate(0 -4.5)"/></svg>