<svg xmlns="http://www.w3.org/2000/svg" width="43.762" height="43.762" viewBox="0 0 43.762 43.762"><defs><style>.a,.b{fill:#00b3f3;}.a{stroke-linejoin:round;}.b,.c{stroke:#fff;stroke-width:1.3px;}.b{stroke-linecap:round;stroke-miterlimit:10;}.c{fill:none;}.d,.e{stroke:none;}.e{fill:#fff;}</style></defs><g transform="translate(1.839 22.128) rotate(-45)"><g class="a"><path class="d" d="M 1.74946665763855 28.66440391540527 L 1.454186677932739 28.64393424987793 L -0.04495333507657051 28.54002380371094 L -1.468983292579651 28.44132423400879 L -0.4596233367919922 27.43196487426758 L 5.056234359741211 21.91611671447754 L 4.194806575775146 21.05469512939453 L 3.735186576843262 20.59507369995117 L 4.194806575775146 20.13545417785645 L 5.739040851593018 18.59121322631836 L 5.478766441345215 18.33093452453613 L 5.01914644241333 17.87131500244141 L 5.478766441345215 17.41169548034668 L 14.99239063262939 7.89806079864502 L 14.2407865524292 7.146444797515869 L 13.78116703033447 6.686824798583984 L 14.2407865524292 6.227204322814941 L 16.33366584777832 4.134334564208984 L 16.79328727722168 3.6747145652771 L 17.25290679931641 4.134334564208984 L 19.39978408813477 6.281195640563965 L 23.36393737792969 2.317034959793091 L 22.5529670715332 1.506064534187317 L 22.09334754943848 1.046444535255432 L 22.5529670715332 0.5868245363235474 L 23.59939575195313 -0.4596154391765594 L 24.05900573730469 -0.9192354679107666 L 24.51862716674805 -0.4596154391765594 L 25.78924751281738 0.8109745383262634 L 27.88214683532715 2.903864622116089 L 29.15273666381836 4.174444675445557 L 29.61235618591309 4.634064674377441 L 29.15273666381836 5.093684673309326 L 28.10628700256348 6.140134334564209 L 27.64666748046875 6.599754333496094 L 27.18704605102539 6.140134334564209 L 26.3760814666748 5.32915735244751 L 22.41189765930176 9.29332447052002 L 24.55877685546875 11.44019412994385 L 25.01839637756348 11.89981460571289 L 24.55877685546875 12.35943412780762 L 22.46586608886719 14.45232486724854 L 22.0062370300293 14.91194438934326 L 21.54661750793457 14.45231437683105 L 20.79503059387207 13.70071029663086 L 11.28139686584473 23.21433448791504 L 10.82177639007568 23.67395401000977 L 10.36215686798096 23.21433448791504 L 10.10188484191895 22.95406150817871 L 8.557636260986328 24.49829483032227 L 8.098006248474121 24.95791435241699 L 7.638396739959717 24.49829483032227 L 6.776993274688721 23.63687896728516 L 1.958756685256958 28.45511436462402 L 1.74946665763855 28.66440391540527 Z"/><path class="e" d="M 24.05901718139648 -5.7220458984375e-06 L 23.01258659362793 1.046443939208984 L 24.28317642211914 2.317033767700195 L 19.39978790283203 7.200433731079102 L 16.79328536987305 4.593944549560547 L 14.70040702819824 6.686824798583984 L 15.9116268157959 7.898063659667969 L 5.938386917114258 17.87131500244141 L 6.65827751159668 18.59121322631836 L 4.654426574707031 20.59507369995117 L 5.97547721862793 21.91611480712891 L -3.814697265625e-06 27.8915843963623 L 1.499135971069336 27.99548530578613 L 6.776996612548828 22.7176342010498 L 8.098016738891602 24.03867530822754 L 10.10188674926758 22.03482437133789 L 10.82177734375 22.75471496582031 L 20.79503631591797 12.78146457672119 L 22.00624656677246 13.99270439147949 L 24.09915733337402 11.89981460571289 L 21.49265670776367 9.293325424194336 L 26.3760871887207 4.409914016723633 L 27.64665603637695 5.680515289306641 L 28.69311714172363 4.634063720703125 L 27.42252731323242 3.363485336303711 L 25.32963562011719 1.270593643188477 L 24.05901718139648 -5.7220458984375e-06 M 24.05900573730469 -1.300004959106445 C 24.40378570556641 -1.300004959106445 24.73444747924805 -1.163045883178711 24.97824668884277 -0.9192562103271484 L 26.24886703491211 0.3513450622558594 L 28.34176635742188 2.444244384765625 L 29.61235618591309 3.714824676513672 C 29.85614585876465 3.958623886108398 29.99311637878418 4.289283752441406 29.99311637878418 4.634063720703125 C 29.99311637878418 4.978843688964844 29.85614585876465 5.309514999389648 29.61234664916992 5.553304672241211 L 28.56588745117188 6.599754333496094 C 28.32208633422852 6.843555450439453 27.99142646789551 6.980514526367188 27.64664649963379 6.980514526367188 C 27.30186653137207 6.980514526367188 26.97120666503906 6.843544006347656 26.72740745544434 6.59974479675293 L 26.37607383728027 6.248403549194336 L 23.33114051818848 9.293325424194336 L 25.01839637756348 10.9805736541748 C 25.26219749450684 11.22437477111816 25.39915657043457 11.55503463745117 25.39915657043457 11.89981460571289 C 25.39915657043457 12.24459457397461 25.26218605041504 12.5752649307251 25.01838684082031 12.81905460357666 L 22.92547607421875 14.91194438934326 C 22.68167686462402 15.1557445526123 22.35101699829102 15.29270458221436 22.0062370300293 15.29270458221436 C 21.66145706176758 15.29270458221436 21.33079719543457 15.15573501586914 21.08699607849121 14.9119348526001 L 20.79502487182617 14.61995506286621 L 11.74101638793945 23.67395401000977 C 11.4871768951416 23.92779541015625 11.15447616577148 24.05471420288086 10.82177734375 24.05471420288086 C 10.57879066467285 24.05471420288086 10.3358154296875 23.98702239990234 10.12355041503906 23.85162162780762 L 9.017246246337891 24.95791435241699 C 8.773456573486328 25.20171356201172 8.442787170410156 25.33867454528809 8.098007202148438 25.33867454528809 C 7.753227233886719 25.33867454528809 7.422567367553711 25.20170402526855 7.178766250610352 24.95790481567383 L 6.776988983154297 24.55611991882324 L 2.418376922607422 28.91472434997559 C 2.17376708984375 29.15933418273926 1.842700958251953 29.29548835754395 1.499216079711914 29.29548835754395 C 1.469291687011719 29.29548835754395 1.439321517944336 29.29445838928223 1.409255981445313 29.29237365722656 L -0.08988380432128906 29.18847465515137 C -0.5981426239013672 29.15324401855469 -1.038972854614258 28.82438468933105 -1.217533111572266 28.34722518920898 C -1.396102905273438 27.87007522583008 -1.27949333190918 27.33259391784668 -0.9192428588867188 26.97234535217285 L 4.136991500854492 21.91611671447754 L 3.735187530517578 21.51431465148926 C 3.491395950317383 21.2705249786377 3.354427337646484 20.93986511230469 3.354427337646484 20.59507369995117 C 3.354427337646484 20.25029373168945 3.491386413574219 19.91963577270508 3.735187530517578 19.67583465576172 L 4.84147834777832 18.56953811645508 C 4.520692825317383 18.0666389465332 4.579916000366211 17.39130592346191 5.019145965576172 16.95207595825195 L 14.07315444946289 7.89805793762207 L 13.78115653991699 7.606054306030273 C 13.27348709106445 7.09837532043457 13.27348709106445 6.275264739990234 13.78116703033447 5.767583847045898 L 15.87404632568359 3.674705505371094 C 16.12788772583008 3.420864105224609 16.46058654785156 3.2939453125 16.79328536987305 3.2939453125 C 17.1259880065918 3.2939453125 17.45868682861328 3.420864105224609 17.71252632141113 3.674705505371094 L 19.39978408813477 5.361955642700195 L 22.44469833374023 2.317035675048828 L 22.09334564208984 1.96568489074707 C 21.58566665649414 1.458003997802734 21.58566665649414 0.6348953247070313 22.09333610534668 0.1272144317626953 L 23.13976669311523 -0.9192352294921875 C 23.38356781005859 -1.163036346435547 23.71422576904297 -1.300004959106445 24.05900573730469 -1.300004959106445 Z"/></g><g transform="translate(10.693 13.613)"><path class="b" d="M0,0,2.809,2.8" transform="translate(0 3.779)"/><path class="b" d="M0,0,2.809,2.8" transform="translate(3.779)"/></g><path class="c" d="M7.6,7.572,0,0" transform="translate(17.025 4.086)"/><path class="c" d="M7.5,7.463,0,0" transform="translate(14.216 7.03)"/><path class="c" d="M3.65,3.683,0,0" transform="translate(4.122 20.847)"/></g></svg>